<svg width="4696" height="812" viewBox="0 0 4696 812" fill="none" xmlns="http://www.w3.org/2000/svg">
<path d="M0 75C0 33.5787 33.5786 0 75 0H1005C1046.42 0 1080 33.5786 1080 75V737C1080 778.421 1046.42 812 1005 812H75C33.5786 812 0 778.421 0 737V75Z" fill="#FF6600"/>
<path d="M362.285 210.68C401.152 210.68 433.184 215.367 458.379 224.742C483.77 234.117 502.617 248.277 514.922 267.223C527.227 286.168 533.379 310.094 533.379 339C533.379 358.531 529.668 375.621 522.246 390.27C514.824 404.918 505.059 417.32 492.949 427.477C480.84 437.633 467.754 445.934 453.691 452.379L579.668 639H478.887L376.641 474.645H328.301V639H237.48V210.68H362.285ZM355.84 285.094H328.301V400.816H357.598C387.676 400.816 409.16 395.836 422.051 385.875C435.137 375.719 441.68 360.875 441.68 341.344C441.68 321.031 434.648 306.578 420.586 297.984C406.719 289.391 385.137 285.094 355.84 285.094Z" fill="#003366"/>
<path d="M710.391 210.68C765.664 210.68 805.996 222.594 831.387 246.422C856.777 270.055 869.473 302.672 869.473 344.273C869.473 363.023 866.641 380.992 860.977 398.18C855.312 415.172 846.035 430.309 833.145 443.59C820.449 456.871 803.457 467.418 782.168 475.23C760.879 482.848 734.609 486.656 703.359 486.656H664.395V639H573.574V210.68H710.391ZM705.703 285.094H664.395V412.242H694.277C711.27 412.242 726.016 409.996 738.516 405.504C751.016 401.012 760.684 393.98 767.52 384.41C774.355 374.84 777.773 362.535 777.773 347.496C777.773 326.402 771.914 310.777 760.195 300.621C748.477 290.27 730.312 285.094 705.703 285.094Z" fill="#003366"/>
<path d="M1430.9 210.68C1469.77 210.68 1501.8 215.367 1526.99 224.742C1552.38 234.117 1571.23 248.277 1583.54 267.223C1595.84 286.168 1601.99 310.094 1601.99 339C1601.99 358.531 1598.28 375.621 1590.86 390.27C1583.44 404.918 1573.67 417.32 1561.56 427.477C1549.45 437.633 1536.37 445.934 1522.3 452.379L1648.28 639H1547.5L1445.25 474.645H1396.91V639H1306.09V210.68H1430.9ZM1424.45 285.094H1396.91V400.816H1426.21C1456.29 400.816 1477.77 395.836 1490.66 385.875C1503.75 375.719 1510.29 360.875 1510.29 341.344C1510.29 321.031 1503.26 306.578 1489.2 297.984C1475.33 289.391 1453.75 285.094 1424.45 285.094Z" fill="#FF6600"/>
<path d="M1932.81 474.645C1932.81 501.988 1929.1 526.207 1921.68 547.301C1914.45 568.395 1903.81 586.266 1889.75 600.914C1875.88 615.367 1859.08 626.305 1839.36 633.727C1819.82 641.148 1797.75 644.859 1773.14 644.859C1750.1 644.859 1728.91 641.148 1709.57 633.727C1690.43 626.305 1673.73 615.367 1659.47 600.914C1645.41 586.266 1634.47 568.395 1626.66 547.301C1619.04 526.207 1615.23 501.988 1615.23 474.645C1615.23 438.316 1621.68 407.555 1634.57 382.359C1647.46 357.164 1665.82 338.023 1689.65 324.938C1713.48 311.852 1741.89 305.309 1774.9 305.309C1805.57 305.309 1832.71 311.852 1856.35 324.938C1880.18 338.023 1898.83 357.164 1912.3 382.359C1925.98 407.555 1932.81 438.316 1932.81 474.645ZM1706.35 474.645C1706.35 496.129 1708.69 514.195 1713.38 528.844C1718.07 543.492 1725.39 554.527 1735.35 561.949C1745.31 569.371 1758.3 573.082 1774.32 573.082C1790.14 573.082 1802.93 569.371 1812.7 561.949C1822.66 554.527 1829.88 543.492 1834.38 528.844C1839.06 514.195 1841.41 496.129 1841.41 474.645C1841.41 452.965 1839.06 434.996 1834.38 420.738C1829.88 406.285 1822.66 395.445 1812.7 388.219C1802.73 380.992 1789.75 377.379 1773.73 377.379C1750.1 377.379 1732.91 385.484 1722.17 401.695C1711.62 417.906 1706.35 442.223 1706.35 474.645Z" fill="#FF6600"/>
<path d="M2247.23 311.461V639H2178.67L2166.66 597.105H2161.97C2154.94 608.238 2146.15 617.32 2135.61 624.352C2125.06 631.383 2113.44 636.559 2100.74 639.879C2088.05 643.199 2074.86 644.859 2061.19 644.859C2037.75 644.859 2017.34 640.758 1999.96 632.555C1982.58 624.156 1969 611.168 1959.24 593.59C1949.67 576.012 1944.88 553.16 1944.88 525.035V311.461H2034.24V502.77C2034.24 526.207 2038.44 543.883 2046.84 555.797C2055.23 567.711 2068.61 573.668 2086.97 573.668C2105.14 573.668 2119.39 569.566 2129.75 561.363C2140.1 552.965 2147.32 540.758 2151.43 524.742C2155.72 508.531 2157.87 488.805 2157.87 465.562V311.461H2247.23Z" fill="#FF6600"/>
<path d="M2418.96 573.668C2428.73 573.668 2438.2 572.691 2447.38 570.738C2456.76 568.785 2466.04 566.344 2475.21 563.414V629.918C2465.64 634.215 2453.73 637.73 2439.47 640.465C2425.41 643.395 2409.98 644.859 2393.18 644.859C2373.65 644.859 2356.07 641.734 2340.45 635.484C2325.02 629.039 2312.81 618.004 2303.83 602.379C2295.04 586.559 2290.64 564.586 2290.64 536.461V378.551H2247.87V340.758L2297.09 310.875L2322.87 241.734H2380V311.461H2471.7V378.551H2380V536.461C2380 548.961 2383.52 558.336 2390.55 564.586C2397.77 570.641 2407.25 573.668 2418.96 573.668Z" fill="#FF6600"/>
<path d="M2616.78 305.309C2647.05 305.309 2673.12 311.168 2695 322.887C2716.88 334.41 2733.77 351.207 2745.68 373.277C2757.6 395.348 2763.55 422.301 2763.55 454.137V497.496H2552.32C2553.3 522.691 2560.82 542.516 2574.88 556.969C2589.14 571.227 2608.87 578.355 2634.06 578.355C2654.96 578.355 2674.1 576.207 2691.48 571.91C2708.87 567.613 2726.74 561.168 2745.1 552.574V621.715C2728.89 629.723 2711.89 635.582 2694.12 639.293C2676.54 643.004 2655.16 644.859 2629.96 644.859C2597.15 644.859 2568.05 638.805 2542.66 626.695C2517.46 614.586 2497.64 596.129 2483.18 571.324C2468.93 546.52 2461.8 515.27 2461.8 477.574C2461.8 439.293 2468.24 407.457 2481.13 382.066C2494.22 356.48 2512.38 337.34 2535.62 324.645C2558.87 311.754 2585.92 305.309 2616.78 305.309ZM2617.36 368.883C2599.98 368.883 2585.53 374.449 2574 385.582C2562.68 396.715 2556.13 414.195 2554.38 438.023H2679.77C2679.57 424.742 2677.13 412.926 2672.44 402.574C2667.95 392.223 2661.11 384.02 2651.93 377.965C2642.95 371.91 2631.43 368.883 2617.36 368.883Z" fill="#FF6600"/>
<path d="M2920.06 210.68C2975.33 210.68 3015.66 222.594 3041.05 246.422C3066.45 270.055 3079.14 302.672 3079.14 344.273C3079.14 363.023 3076.31 380.992 3070.64 398.18C3064.98 415.172 3055.7 430.309 3042.81 443.59C3030.12 456.871 3013.12 467.418 2991.84 475.23C2970.55 482.848 2944.28 486.656 2913.03 486.656H2874.06V639H2783.24V210.68H2920.06ZM2915.37 285.094H2874.06V412.242H2903.95C2920.94 412.242 2935.68 409.996 2948.18 405.504C2960.68 401.012 2970.35 393.98 2977.19 384.41C2984.02 374.84 2987.44 362.535 2987.44 347.496C2987.44 326.402 2981.58 310.777 2969.86 300.621C2958.14 290.27 2939.98 285.094 2915.37 285.094Z" fill="#FF6600"/>
<path d="M3182.32 639H3092.97V183.141H3182.32V639Z" fill="#FF6600"/>
<path d="M3350.55 304.723C3394.49 304.723 3428.18 314.293 3451.62 333.434C3475.06 352.574 3486.78 381.676 3486.78 420.738V639H3424.38L3407.09 594.469H3404.75C3395.37 606.188 3385.8 615.758 3376.04 623.18C3366.27 630.602 3355.04 636.07 3342.34 639.586C3329.65 643.102 3314.22 644.859 3296.05 644.859C3276.72 644.859 3259.34 641.148 3243.91 633.727C3228.67 626.305 3216.66 614.977 3207.87 599.742C3199.08 584.312 3194.69 564.781 3194.69 541.148C3194.69 506.383 3206.89 480.797 3231.31 464.391C3255.72 447.789 3292.34 438.609 3341.17 436.852L3398.01 435.094V420.738C3398.01 403.551 3393.52 390.953 3384.53 382.945C3375.55 374.938 3363.05 370.934 3347.03 370.934C3331.21 370.934 3315.68 373.18 3300.45 377.672C3285.21 382.164 3269.98 387.828 3254.75 394.664L3225.16 334.312C3242.54 325.133 3261.97 317.906 3283.46 312.633C3305.14 307.359 3327.5 304.723 3350.55 304.723ZM3398.01 487.242L3363.44 488.414C3334.53 489.195 3314.41 494.371 3303.09 503.941C3291.95 513.512 3286.39 526.109 3286.39 541.734C3286.39 555.406 3290.39 565.172 3298.4 571.031C3306.41 576.695 3316.86 579.527 3329.75 579.527C3348.89 579.527 3365 573.863 3378.09 562.535C3391.37 551.207 3398.01 535.094 3398.01 514.195V487.242Z" fill="#FF6600"/>
<path d="M3705.1 305.309C3740.06 305.309 3768.18 314.879 3789.47 334.02C3810.76 352.965 3821.41 383.434 3821.41 425.426V639H3732.05V447.691C3732.05 424.254 3727.75 406.578 3719.16 394.664C3710.76 382.75 3697.48 376.793 3679.32 376.793C3651.97 376.793 3633.32 386.07 3623.36 404.625C3613.4 423.18 3608.42 449.938 3608.42 484.898V639H3519.06V311.461H3587.32L3599.34 353.355H3604.32C3611.35 342.027 3620.04 332.848 3630.39 325.816C3640.94 318.785 3652.56 313.609 3665.25 310.289C3678.14 306.969 3691.43 305.309 3705.1 305.309Z" fill="#FF6600"/>
<path d="M4039.43 305.309C4074.39 305.309 4102.52 314.879 4123.81 334.02C4145.1 352.965 4155.74 383.434 4155.74 425.426V639H4066.39V447.691C4066.39 424.254 4062.09 406.578 4053.5 394.664C4045.1 382.75 4031.82 376.793 4013.65 376.793C3986.31 376.793 3967.66 386.07 3957.7 404.625C3947.73 423.18 3942.75 449.938 3942.75 484.898V639H3853.4V311.461H3921.66L3933.67 353.355H3938.65C3945.68 342.027 3954.38 332.848 3964.73 325.816C3975.27 318.785 3986.89 313.609 3999.59 310.289C4012.48 306.969 4025.76 305.309 4039.43 305.309Z" fill="#FF6600"/>
<path d="M4322.79 305.309C4353.07 305.309 4379.14 311.168 4401.02 322.887C4422.89 334.41 4439.79 351.207 4451.7 373.277C4463.61 395.348 4469.57 422.301 4469.57 454.137V497.496H4258.34C4259.32 522.691 4266.84 542.516 4280.9 556.969C4295.16 571.227 4314.88 578.355 4340.08 578.355C4360.98 578.355 4380.12 576.207 4397.5 571.91C4414.88 567.613 4432.75 561.168 4451.11 552.574V621.715C4434.9 629.723 4417.91 635.582 4400.14 639.293C4382.56 643.004 4361.17 644.859 4335.98 644.859C4303.16 644.859 4274.06 638.805 4248.67 626.695C4223.48 614.586 4203.65 596.129 4189.2 571.324C4174.94 546.52 4167.81 515.27 4167.81 477.574C4167.81 439.293 4174.26 407.457 4187.15 382.066C4200.23 356.48 4218.4 337.34 4241.64 324.645C4264.88 311.754 4291.93 305.309 4322.79 305.309ZM4323.38 368.883C4306 368.883 4291.54 374.449 4280.02 385.582C4268.69 396.715 4262.15 414.195 4260.39 438.023H4385.78C4385.59 424.742 4383.14 412.926 4378.46 402.574C4373.96 392.223 4367.13 384.02 4357.95 377.965C4348.96 371.91 4337.44 368.883 4323.38 368.883Z" fill="#FF6600"/>
<path d="M4665.04 305.309C4669.53 305.309 4674.71 305.602 4680.57 306.188C4686.62 306.578 4691.5 307.164 4695.21 307.945L4688.48 391.734C4685.55 390.758 4681.35 390.074 4675.88 389.684C4670.61 389.098 4666.02 388.805 4662.11 388.805C4650.59 388.805 4639.36 390.27 4628.42 393.199C4617.68 396.129 4608.01 400.914 4599.41 407.555C4590.82 414 4583.98 422.594 4578.91 433.336C4574.02 443.883 4571.58 456.871 4571.58 472.301V639H4482.23V311.461H4549.9L4563.09 366.539H4567.48C4573.93 355.406 4581.93 345.25 4591.5 336.07C4601.27 326.695 4612.3 319.273 4624.61 313.805C4637.11 308.141 4650.59 305.309 4665.04 305.309Z" fill="#FF6600"/>
</svg>
